<?xml version="1.0" encoding="utf-8"?>
<!-- Generator: Adobe Illustrator 23.1.0, SVG Export Plug-In . SVG Version: 6.00 Build 0)  -->
<svg version="1.1" xmlns="http://www.w3.org/2000/svg" xmlns:xlink="http://www.w3.org/1999/xlink" x="0px" y="0px"
	 viewBox="0 0 100 55" style="enable-background:new 0 0 100 55;" xml:space="preserve">
<style type="text/css">
	.st0{display:none;opacity:0.54;}
	.st1{fill:#0698D1;}
</style>
<g id="Layer_1" class="st0">
	
		<image style="display:inline;overflow:visible;" width="100" height="53" xlink:href="new_logo.png"  transform="matrix(1 0 0 1 0 1)">
	</image>
</g>
<g id="Layer_2">
	<path class="st1" d="M100,55C96.6,8.07,54.88,7.22,54.88,7.22h-2.12c0,0-0.01,0-0.07,0c-0.32,0-1.82,0-7.9,0
		C-3.49,14.22,0.06,55,0.06,55s5.06,0,15.15,0c0-41,29.81-40.78,29.81-40.78V55H100z M55.93,13.11c0,0,26.52,0.07,31.19,31.7
		c-31.19,0-31.19,0-31.19,0V13.11z"/>
	<rect x="45.02" class="st1" width="10.9" height="7.28"/>
</g>
</svg>
